HIERARCHY
ROOT Hips
{
	OFFSET 0.000000 100.481300 0.000000
	CHANNELS 6 Xposition Yposition Zposition Xrotation Yrotation Zrotation 
	JOINT Spine
	{
		OFFSET -0.279200 12.230698 -2.892100
		CHANNELS 3 Xrotation Yrotation Zrotation
		JOINT Spine1
		{
			OFFSET -0.232667 10.192268 -1.242267
			CHANNELS 3 Xrotation Yrotation Zrotation
			JOINT Spine1_split
			{
				OFFSET -0.232667 10.192268 -1.242267
				CHANNELS 3 Xrotation Yrotation Zrotation
				JOINT Spine2
				{
					OFFSET -0.232667 10.192268 -1.242267
					CHANNELS 3 Xrotation Yrotation Zrotation
					JOINT Neck
					{
						OFFSET -0.418800 17.814194 8.416900
						CHANNELS 3 Xrotation Yrotation Zrotation
						JOINT Head
						{
							OFFSET 0.000000 7.031097 3.806800
							CHANNELS 3 Xrotation Yrotation Zrotation
							JOINT HeadTop_End
							{
								OFFSET 0.000000 24.646606 12.978600
								CHANNELS 3 Xrotation Yrotation Zrotation
								End Site
								{
									OFFSET 0.000000 0.000000 0.000000
								}
							}
						}
					}
					JOINT LeftShoulder
					{
						OFFSET 8.476499 7.247704 -3.868750
						CHANNELS 3 Xrotation Yrotation Zrotation
						JOINT LeftShoulder_split
						{
							OFFSET 8.476499 7.247704 -3.868750
							CHANNELS 3 Xrotation Yrotation Zrotation
							JOINT LeftArm
							{
								OFFSET 9.308998 -2.777710 0.208600
								CHANNELS 3 Xrotation Yrotation Zrotation
								JOINT LeftForeArm
								{
									OFFSET 29.972298 0.000000 0.000000
									CHANNELS 3 Xrotation Yrotation Zrotation
									JOINT LeftHand
									{
										OFFSET 26.026505 0.000000 0.000000
										CHANNELS 3 Xrotation Yrotation Zrotation
										JOINT LeftHandThumb1
										{
											OFFSET 12.240501 -7.147949 9.207150
											CHANNELS 3 Xrotation Yrotation Zrotation
											JOINT LeftHandThumb2
											{
												OFFSET 4.138618 -2.389435 2.389433
												CHANNELS 3 Xrotation Yrotation Zrotation
												JOINT LeftHandThumb3
												{
													OFFSET 2.726913 -1.574387 1.574386
													CHANNELS 3 Xrotation Yrotation Zrotation
													JOINT LeftHandThumb4
													{
														OFFSET 3.941010 -2.275345 2.275342
														CHANNELS 3 Xrotation Yrotation Zrotation
														End Site
														{
															OFFSET 0.000000 0.000000 0.000000
														}
													}
												}
											}
										}
										JOINT LeftHandIndex1
										{
											OFFSET 24.424698 -1.985611 5.953459
											CHANNELS 3 Xrotation Yrotation Zrotation
											JOINT LeftHandIndex2
											{
												OFFSET 6.426697 0.000000 0.000000
												CHANNELS 3 Xrotation Yrotation Zrotation
												JOINT LeftHandIndex3
												{
													OFFSET 5.337898 0.000000 0.000000
													CHANNELS 3 Xrotation Yrotation Zrotation
													JOINT LeftHandIndex4
													{
														OFFSET 4.409401 0.000000 0.000000
														CHANNELS 3 Xrotation Yrotation Zrotation
														End Site
														{
															OFFSET 0.000000 0.000000 0.000000
														}
													}
												}
											}
										}
										JOINT LeftHandMiddle1
										{
											OFFSET 23.810104 0.000000 0.000000
											CHANNELS 3 Xrotation Yrotation Zrotation
											JOINT LeftHandMiddle2
											{
												OFFSET 7.176498 0.000000 0.000000
												CHANNELS 3 Xrotation Yrotation Zrotation
												JOINT LeftHandMiddle3
												{
													OFFSET 6.774902 0.000000 0.000000
													CHANNELS 3 Xrotation Yrotation Zrotation
													JOINT LeftHandMiddle4
													{
														OFFSET 5.403328 0.000000 0.000000
														CHANNELS 3 Xrotation Yrotation Zrotation
														End Site
														{
															OFFSET 0.000000 0.000000 0.000000
														}
													}
												}
											}
										}
										JOINT LeftHandRing1
										{
											OFFSET 22.908401 -0.839279 -6.020567
											CHANNELS 3 Xrotation Yrotation Zrotation
											JOINT LeftHandRing2
											{
												OFFSET 6.337502 0.000000 0.000000
												CHANNELS 3 Xrotation Yrotation Zrotation
												JOINT LeftHandRing3
												{
													OFFSET 5.779297 0.000000 0.000000
													CHANNELS 3 Xrotation Yrotation Zrotation
													JOINT LeftHandRing4
													{
														OFFSET 4.965698 0.000000 0.000000
														CHANNELS 3 Xrotation Yrotation Zrotation
														End Site
														{
															OFFSET 0.000000 0.000000 0.000000
														}
													}
												}
											}
										}
										JOINT LeftHandPinky1
										{
											OFFSET 20.037003 -1.530319 -10.950146
											CHANNELS 3 Xrotation Yrotation Zrotation
											JOINT LeftHandPinky2
											{
												OFFSET 5.254700 0.000000 0.000000
												CHANNELS 3 Xrotation Yrotation Zrotation
												JOINT LeftHandPinky3
												{
													OFFSET 4.810204 0.000000 0.000000
													CHANNELS 3 Xrotation Yrotation Zrotation
													JOINT LeftHandPinky4
													{
														OFFSET 3.647202 0.000000 0.000000
														CHANNELS 3 Xrotation Yrotation Zrotation
														End Site
														{
															OFFSET 0.000000 0.000000 0.000000
														}
													}
												}
											}
										}
									}
								}
							}
						}
					}
					JOINT RightShoulder
					{
						OFFSET -7.570500 7.247704 -3.868750
						CHANNELS 3 Xrotation Yrotation Zrotation
						JOINT RightShoulder_split
						{
							OFFSET -7.570500 7.247704 -3.868750
							CHANNELS 3 Xrotation Yrotation Zrotation
							JOINT RightArm
							{
								OFFSET -9.308998 -2.777710 0.208500
								CHANNELS 3 Xrotation Yrotation Zrotation
								JOINT RightForeArm
								{
									OFFSET -29.972300 0.000000 0.000000
									CHANNELS 3 Xrotation Yrotation Zrotation
									JOINT RightHand
									{
										OFFSET -26.026505 0.000000 0.000000
										CHANNELS 3 Xrotation Yrotation Zrotation
										JOINT RightHandThumb1
										{
											OFFSET -12.240601 -7.148026 9.207092
											CHANNELS 3 Xrotation Yrotation Zrotation
											JOINT RightHandThumb2
											{
												OFFSET -4.138618 -2.389435 2.389433
												CHANNELS 3 Xrotation Yrotation Zrotation
												JOINT RightHandThumb3
												{
													OFFSET -2.726974 -1.574417 1.574421
													CHANNELS 3 Xrotation Yrotation Zrotation
													JOINT RightHandThumb4
													{
														OFFSET -3.941010 -2.275345 2.275343
														CHANNELS 3 Xrotation Yrotation Zrotation
														End Site
														{
															OFFSET 0.000000 0.000000 0.000000
														}
													}
												}
											}
										}
										JOINT RightHandIndex1
										{
											OFFSET -24.424698 -1.985657 5.953444
											CHANNELS 3 Xrotation Yrotation Zrotation
											JOINT RightHandIndex2
											{
												OFFSET -6.426697 0.000000 0.000000
												CHANNELS 3 Xrotation Yrotation Zrotation
												JOINT RightHandIndex3
												{
													OFFSET -5.337898 0.000000 0.000000
													CHANNELS 3 Xrotation Yrotation Zrotation
													JOINT RightHandIndex4
													{
														OFFSET -4.409401 0.000000 0.000000
														CHANNELS 3 Xrotation Yrotation Zrotation
														End Site
														{
															OFFSET 0.000000 0.000000 0.000000
														}
													}
												}
											}
										}
										JOINT RightHandMiddle1
										{
											OFFSET -23.810097 0.000000 0.000000
											CHANNELS 3 Xrotation Yrotation Zrotation
											JOINT RightHandMiddle2
											{
												OFFSET -7.176498 0.000000 0.000000
												CHANNELS 3 Xrotation Yrotation Zrotation
												JOINT RightHandMiddle3
												{
													OFFSET -6.774902 0.000000 0.000000
													CHANNELS 3 Xrotation Yrotation Zrotation
													JOINT RightHandMiddle4
													{
														OFFSET -5.403328 0.000000 0.000000
														CHANNELS 3 Xrotation Yrotation Zrotation
														End Site
														{
															OFFSET 0.000000 0.000000 0.000000
														}
													}
												}
											}
										}
										JOINT RightHandRing1
										{
											OFFSET -22.908302 -0.839325 -6.020576
											CHANNELS 3 Xrotation Yrotation Zrotation
											JOINT RightHandRing2
											{
												OFFSET -6.337502 0.000000 0.000000
												CHANNELS 3 Xrotation Yrotation Zrotation
												JOINT RightHandRing3
												{
													OFFSET -5.779297 0.000000 0.000000
													CHANNELS 3 Xrotation Yrotation Zrotation
													JOINT RightHandRing4
													{
														OFFSET -4.965698 0.000000 0.000000
														CHANNELS 3 Xrotation Yrotation Zrotation
														End Site
														{
															OFFSET 0.000000 0.000000 0.000000
														}
													}
												}
											}
										}
										JOINT RightHandPinky1
										{
											OFFSET -20.037003 -1.530334 -10.950259
											CHANNELS 3 Xrotation Yrotation Zrotation
											JOINT RightHandPinky2
											{
												OFFSET -5.254700 0.000000 0.000000
												CHANNELS 3 Xrotation Yrotation Zrotation
												JOINT RightHandPinky3
												{
													OFFSET -4.810204 0.000000 0.000000
													CHANNELS 3 Xrotation Yrotation Zrotation
													JOINT RightHandPinky4
													{
														OFFSET -3.647202 0.000000 0.000000
														CHANNELS 3 Xrotation Yrotation Zrotation
														End Site
														{
															OFFSET 0.000000 0.000000 0.000000
														}
													}
												}
											}
										}
									}
								}
							}
						}
					}
				}
			}
		}
	}
	JOINT LeftUpLeg
	{
		OFFSET 15.427100 -6.655098 0.678600
		CHANNELS 3 Xrotation Yrotation Zrotation
		JOINT LeftLeg
		{
			OFFSET 4.081073 -39.591068 13.024000
			CHANNELS 3 Xrotation Yrotation Zrotation
			JOINT LeftFoot
			{
				OFFSET -4.081074 -37.707932 -15.979700
				CHANNELS 3 Xrotation Yrotation Zrotation
				JOINT LeftToeBase
				{
					OFFSET 5.346399 -15.068900 20.645000
					CHANNELS 3 Xrotation Yrotation Zrotation
					JOINT LeftToe_End
					{
						OFFSET 2.754700 0.931300 11.300900
						CHANNELS 3 Xrotation Yrotation Zrotation
						End Site
						{
							OFFSET 0.000000 0.000000 0.000000
						}
					}
				}
			}
		}
	}
	JOINT RightUpLeg
	{
		OFFSET -15.569500 -6.655098 0.678600
		CHANNELS 3 Xrotation Yrotation Zrotation
		JOINT RightLeg
		{
			OFFSET -4.081825 -39.591045 13.023800
			CHANNELS 3 Xrotation Yrotation Zrotation
			JOINT RightFoot
			{
				OFFSET 4.081824 -37.707954 -15.979600
				CHANNELS 3 Xrotation Yrotation Zrotation
				JOINT RightToeBase
				{
					OFFSET -5.346400 -15.068900 20.645000
					CHANNELS 3 Xrotation Yrotation Zrotation
					JOINT RightToe_End
					{
						OFFSET -2.754700 0.931300 11.300900
						CHANNELS 3 Xrotation Yrotation Zrotation
						End Site
						{
							OFFSET 0.000000 0.000000 0.000000
						}
					}
				}
			}
		}
	}
}
MOTION
Frames: 4
Frame Time: 0.016667
-0.106395 122.548302 14.765756 4.370293 -36.883824 5.400905 30.126264 -5.759431 -10.055905 12.785633 1.087589 -3.033127 0.000000 0.000000 0.000000 12.733214 1.050410 -3.241309 -8.164149 20.999273 -13.038084 -23.845978 13.475286 4.639313 -0.000003 0.000000 -0.000000 9.829635 -9.813821 -1.458545 0.000000 0.000000 0.000000 -62.537731 12.081219 3.106150 46.615570 -25.819858 31.530096 -9.264692 7.312761 9.666258 40.109938 -15.297131 -0.360425 5.639823 28.097619 11.338678 1.088599 40.896748 22.734011 -0.000001 0.000004 -0.000001 6.882241 2.840059 -61.140404 8.247932 7.639981 -89.897946 2.146326 8.173658 -41.827764 -0.000001 0.000000 -0.000001 -2.345511 4.688855 -62.655320 8.754110 9.897111 -87.051109 1.995377 4.929274 -37.483310 0.000001 -0.000000 -0.000002 -9.042530 10.045666 -60.766322 8.524074 9.508808 -66.893076 6.576507 9.896711 -70.384983 -0.000001 -0.000000 0.000001 -17.946952 14.754942 -51.485809 8.868423 8.667045 -84.811962 4.540352 8.852506 -59.153024 0.000001 0.000003 0.000001 14.990496 20.897824 -4.160223 0.000000 0.000000 0.000000 -28.001552 -11.258125 -3.541421 -45.194556 43.244007 34.197702 -6.582779 -10.157732 -10.545305 -1.525699 -5.490528 13.054248 1.517236 -22.702487 -8.022598 -6.615004 18.786676 8.531370 -0.000000 -0.000000 -0.000008 1.268145 4.823971 -8.200816 0.525037 1.162832 0.172171 0.908690 -0.829982 -14.364533 0.000000 0.000001 0.000000 0.868471 -5.217182 -11.333476 1.480000 -3.605085 20.026707 1.511958 3.331296 -13.916434 -0.000000 -0.000000 -0.000002 1.814738 -11.814411 -9.180223 1.792563 -3.024107 21.110257 1.689921 -2.799892 9.683674 0.000001 -0.000000 0.000001 2.626209 -21.407339 -3.836552 5.351747 -1.276950 0.651253 7.968256 -5.183577 14.308767 0.000002 -0.000002 -0.000002 -74.634071 -16.859506 32.946794 65.348122 -1.961998 6.654296 3.074273 1.063667 -1.206764 -0.000274 -0.007716 0.000022 0.000001 -0.000001 -0.000000 -99.634012 -66.250212 32.476665 112.938892 -8.275164 -29.878560 20.195802 0.103216 28.059899 -0.000194 0.000198 -0.000330 0.000000 -0.000000 0.000000 
-0.118295 122.601929 14.767855 4.304682 -36.602345 5.313461 30.126260 -5.836232 -10.052278 12.788135 1.087593 -3.033133 0.000000 0.000000 0.000000 12.735766 1.050416 -3.241317 -8.920863 20.968734 -13.048930 -25.340145 14.061499 5.597395 0.000001 -0.000000 -0.000000 9.984066 -9.728892 -0.757577 0.000000 0.000000 0.000000 -62.955821 11.135340 3.775610 46.589250 -25.768453 31.469591 -9.041980 6.729831 9.359718 40.109938 -15.297132 -0.360422 5.639826 28.097619 11.338676 1.088598 40.896741 22.734015 -0.000000 0.000000 -0.000000 6.882242 2.840062 -61.140404 8.247933 7.639982 -89.897946 2.146323 8.173659 -41.827764 -0.000001 -0.000001 -0.000002 -2.345510 4.688856 -62.655320 8.754110 9.897113 -87.051109 1.995374 4.929274 -37.483306 -0.000002 0.000002 0.000004 -9.042535 10.045659 -60.766322 8.524072 9.508813 -66.893076 6.576506 9.896710 -70.384983 0.000001 -0.000002 -0.000002 -17.946959 14.754943 -51.485812 8.868418 8.667046 -84.811968 4.540352 8.852504 -59.153031 0.000002 -0.000000 0.000001 15.302918 20.568551 -4.925046 0.000000 0.000000 0.000000 -28.808304 -11.687208 -3.682300 -45.727877 43.802191 34.969209 -6.236514 -12.921150 -11.831704 -1.525700 -5.490528 13.054241 1.517233 -22.702487 -8.022587 -6.615004 18.786676 8.531364 -0.000000 0.000000 0.000001 1.268143 4.826742 -8.222271 0.524602 1.165251 0.150707 1.163871 -1.359994 -14.478811 0.000000 0.000001 -0.000000 0.868223 -5.213087 -11.361327 1.477422 -3.598028 19.974670 1.512733 3.334672 -13.944344 0.000001 -0.000000 -0.000001 1.809766 -11.815190 -9.204586 1.789870 -3.018414 21.069317 1.687951 -2.797110 9.659879 0.000001 0.000000 -0.000001 2.624998 -21.404746 -3.858342 5.348398 -1.270565 0.567668 7.967615 -5.183070 14.287262 -0.000001 -0.000000 0.000001 -74.672846 -16.747228 32.942091 65.522975 -0.649449 7.378791 2.997036 0.400463 -0.196960 0.170581 -0.007772 0.000031 0.000000 0.000001 -0.000004 -99.542473 -66.287819 32.884410 112.903594 -8.478308 -30.077442 21.168594 0.191021 28.709382 -0.000204 0.000148 -0.000359 -0.000000 0.000000 0.000002 
-0.073917 122.611221 14.785798 4.247947 -36.387942 5.189295 30.126950 -5.839151 -10.041104 12.798065 1.087543 -3.033107 0.000000 0.000000 0.000000 12.745765 1.050449 -3.241326 -8.938876 20.977121 -13.011270 -25.364826 13.878972 5.705350 -0.000003 0.000000 0.000001 10.133423 -9.721063 -0.028982 0.000000 0.000000 0.000000 -63.361363 10.080279 4.356411 46.550044 -25.690321 31.376748 -8.810556 6.229375 9.041427 40.109934 -15.297131 -0.360423 5.639823 28.097614 11.338677 1.088601 40.896741 22.734017 0.000001 0.000002 -0.000000 6.882240 2.840061 -61.140404 8.247933 7.639989 -89.897946 2.146331 8.173660 -41.827768 0.000002 0.000000 -0.000003 -2.345508 4.688856 -62.655320 8.754109 9.897111 -87.051102 1.995379 4.929272 -37.483310 -0.000000 0.000000 -0.000002 -9.042532 10.045660 -60.766322 8.524077 9.508812 -66.893076 6.576499 9.896712 -70.384983 -0.000002 -0.000000 0.000001 -17.946952 14.754947 -51.485809 8.868422 8.667044 -84.811968 4.540351 8.852510 -59.153017 0.000002 0.000000 -0.000000 15.618582 20.231676 -5.707900 0.000000 0.000000 0.000000 -29.640125 -12.140666 -3.854857 -46.313778 44.391814 35.807817 -5.972649 -16.119265 -13.160355 -1.525699 -5.490528 13.054249 1.517233 -22.702488 -8.022592 -6.615007 18.786676 8.531372 -0.000000 -0.000001 -0.000003 1.268115 4.834604 -8.283326 0.527610 1.173654 0.089705 1.477271 -1.848840 -14.683399 0.000001 0.000000 0.000000 0.867560 -5.201534 -11.440753 1.470009 -3.577904 19.826709 1.514780 3.345437 -14.023879 0.000002 0.000000 0.000000 1.800670 -11.816958 -9.274029 1.782254 -3.002214 20.952819 1.688069 -2.787244 9.592459 -0.000001 -0.000003 -0.000002 2.621613 -21.397328 -3.920219 5.338790 -1.252262 0.329967 7.965948 -5.181743 14.225983 0.000001 0.000000 -0.000002 -74.691028 -16.790721 32.931040 65.547358 -0.710151 7.341349 3.098780 0.312760 -0.004372 0.215761 -0.007778 -0.000027 -0.000001 -0.000001 -0.000000 -99.518206 -66.410599 33.189726 113.007734 -8.764915 -30.178214 21.322257 0.192285 28.929171 -0.000209 0.000189 -0.000336 -0.000000 -0.000000 0.000001 
-0.028452 122.620026 14.806499 4.192182 -36.174915 5.064241 30.132752 -5.840900 -10.022839 12.814276 1.087515 -3.033105 0.000000 0.000000 0.000000 12.762093 1.050436 -3.241332 -8.900569 20.965571 -12.984459 -25.327567 13.653081 5.711543 -0.000000 0.000000 0.000001 10.281094 -9.782278 0.722434 0.000000 0.000000 0.000000 -63.758600 8.941665 4.845702 46.500280 -25.586444 31.254341 -8.574777 5.831125 8.725815 40.109934 -15.297132 -0.360423 5.639821 28.097614 11.338676 1.088599 40.896751 22.734015 0.000001 0.000001 0.000000 6.882238 2.840058 -61.140404 8.247932 7.639988 -89.897946 2.146323 8.173659 -41.827764 -0.000001 -0.000001 0.000003 -2.345509 4.688852 -62.655320 8.754113 9.897114 -87.051102 1.995377 4.929274 -37.483310 -0.000003 0.000000 0.000000 -9.042531 10.045661 -60.766322 8.524073 9.508811 -66.893076 6.576504 9.896714 -70.384983 0.000005 -0.000000 -0.000001 -17.946952 14.754943 -51.485809 8.868418 8.667046 -84.811962 4.540352 8.852507 -59.153017 -0.000000 -0.000000 -0.000000 15.932605 19.880778 -6.500313 0.000000 0.000000 0.000000 -30.491047 -12.602411 -4.047635 -46.939635 44.997102 36.694877 -5.836488 -19.436203 -14.502619 -1.525700 -5.490528 13.054247 1.517235 -22.702487 -8.022593 -6.615006 18.786676 8.531369 0.000000 -0.000000 -0.000002 1.272686 4.847377 -8.379335 0.532373 1.186893 0.002694 1.837487 -2.300211 -14.965223 -0.000000 -0.000000 -0.000000 0.866598 -5.183221 -11.565164 1.458487 -3.546341 19.594623 1.518093 3.362326 -14.148604 -0.000001 -0.000000 -0.000000 1.786137 -11.819736 -9.382937 1.770364 -2.976797 20.770151 1.684058 -2.772019 9.486539 0.000001 0.000002 -0.000005 2.616272 -21.385715 -4.017272 5.323957 -1.223549 0.000036 7.958635 -5.179491 14.129713 -0.000003 0.000000 -0.000001 -74.735698 -16.854067 32.916789 65.574413 -0.833192 7.269845 3.307400 0.281352 0.159936 0.181327 -0.007797 -0.000011 0.000000 -0.000001 0.000001 -99.551353 -66.522914 33.438564 113.104333 -9.064178 -30.268297 21.490272 0.198650 29.159160 -0.000186 0.000184 -0.000351 -0.000000 0.000000 -0.000000 
